nColumns=19
nRows=89
DataType=double
version=3
OpenSimVersion=4.1
endheader
time	ground_force_calcn_r_vx	ground_force_calcn_r_vy	ground_force_calcn_r_vz	ground_force_calcn_r_px	ground_force_calcn_r_py	ground_force_calcn_r_pz	ground_force_calcn_r_mx	ground_force_calcn_r_my	ground_force_calcn_r_mz	ground_force_calcn_l_vx	ground_force_calcn_l_vy	ground_force_calcn_l_vz	ground_force_calcn_l_px	ground_force_calcn_l_py	ground_force_calcn_l_pz	ground_force_calcn_l_mx	ground_force_calcn_l_my	ground_force_calcn_l_mz
0.43	-10.9455	18.5124	-2.25889	0.865685	0	-0.17782	0.527155	-0.891589	0.108792	0	0	0	0	0	0	0	0	0
0.44	-29.6813	70.5263	-8.5726	0.886181	0	-0.231243	0.189978	-0.451411	0.0548699	0	0	0	0	0	0	0	0	0
0.45	-71.4831	207.388	-18.8729	0.902653	0	-0.239317	-0.164568	0.477447	-0.043449	0	0	0	0	0	0	0	0	0
0.46	-118.482	441.638	-32.2809	0.898031	0	-0.243881	-0.411614	1.53428	-0.112146	0	0	0	0	0	0	0	0	0
0.47	-135.289	726.709	-43.0922	0.873143	0	-0.250236	-0.420695	2.25977	-0.133999	0	0	0	0	0	0	0	0	0
0.48	-134.314	1020.8	-42.3301	0.840845	0	-0.256934	-0.298957	2.2721	-0.0942182	0	0	0	0	0	0	0	0	0
0.49	-156.311	1293.17	-28.3435	0.814822	0	-0.262351	-0.196166	1.6229	-0.0355704	0	0	0	0	0	0	0	0	0
0.5	-190.095	1510.59	-11.6163	0.793686	0	-0.266944	-0.10185	0.80935	-0.00622383	0	0	0	0	0	0	0	0	0
0.51	-201.641	1669.98	-3.67087	0.770749	0	-0.270841	-0.0531334	0.440047	-0.000967293	0	0	0	0	0	0	0	0	0
0.52	-178.875	1789.99	-6.07699	0.745552	0	-0.272981	-0.0898479	0.899106	-0.00305245	0	0	0	0	0	0	0	0	0
0.53	-137.015	1877.18	-14.0829	0.720895	0	-0.273336	-0.159123	2.18008	-0.0163553	0	0	0	0	0	0	0	0	0
0.54	-95.5213	1922.34	-23.5852	0.697833	0	-0.272878	-0.194461	3.91347	-0.0480143	0	0	0	0	0	0	0	0	0
0.55	-58.2953	1918.67	-31.2012	0.675454	0	-0.272097	-0.168782	5.55511	-0.0903366	0	0	0	0	0	0	0	0	0
0.56	-19.5163	1871.27	-34.1506	0.652357	0	-0.271057	-0.0689981	6.61572	-0.120736	0	0	0	0	0	0	0	0	0
0.57	24.2953	1790.4	-32.4559	0.627898	0	-0.269952	0.0925666	6.82154	-0.123659	0	0	0	0	0	0	0	0	0
0.58	71.5019	1681.84	-28.1778	0.602246	0	-0.269002	0.262082	6.16461	-0.103283	0	0	0	0	0	0	0	0	0
0.59	118.08	1544.73	-22.5257	0.575859	0	-0.26818	0.371154	4.85545	-0.0708036	0	0	0	0	0	0	0	0	0
0.6	158.072	1377.27	-15.3396	0.549237	0	-0.267302	0.370232	3.2258	-0.0359279	0	0	0	0	0	0	0	0	0
0.61	185.292	1182.7	-6.80497	0.522875	0	-0.266179	0.254571	1.6249	-0.00934929	0	0	0	0	0	0	0	0	0
0.62	193.424	968.594	1.79495	0.497499	0	-0.26491	0.0660074	0.330539	0.000612541	0	0	0	0	0	0	0	0	0
0.63	180.032	747.918	9.26796	0.473777	0	-0.263679	-0.123092	-0.511367	-0.0063367	0	0	0	0	0	0	0	0	0
0.64	150.934	538.734	15.2834	0.45069	0	-0.26228	-0.249962	-0.892199	-0.0253109	0	0	0	0	0	0	0	0	0
0.65	113.101	358.953	19.4751	0.429713	0	-0.259984	-0.283426	-0.899517	-0.0488035	0	0	0	0	0	0	0	0	0
0.66	72.4741	218.407	20.8269	0.418241	0	-0.2559	-0.2209	-0.665698	-0.0634799	0	0	0	0	0	0	0	0	0
0.67	38.2971	116.969	18.58	0.415479	0	-0.249309	-0.102169	-0.312051	-0.0495678	0	0	0	0	0	0	0	0	0
0.68	15.451	52.6211	13.4341	0.421975	0	-0.238692	0.0171936	0.058556	0.0149492	0	0	0	0	0	0	0	0	0
0.69	2.90771	19.6856	7.61042	0.47007	0	-0.217218	0.0555328	0.375965	0.145347	0	0	0	0	0	0	0	0	0
0.7	0	0	0	0	0	0	0	0	0	0	0	0	0	0	0	0	0	0
0.71	0	0	0	0	0	0	0	0	0	0	0	0	0	0	0	0	0	0
0.72	0	0	0	0	0	0	0	0	0	0	0	0	0	0	0	0	0	0
0.73	0	0	0	0	0	0	0	0	0	0	0	0	0	0	0	0	0	0
0.74	0	0	0	0	0	0	0	0	0	0	0	0	0	0	0	0	0	0
0.75	0	0	0	0	0	0	0	0	0	0	0	0	0	0	0	0	0	0
0.76	0	0	0	0	0	0	0	0	0	0	0	0	0	0	0	0	0	0
0.77	0	0	0	0	0	0	0	0	0	-15.0261	24.0901	-0.853186	0.826781	0	-0.468563	-1.27625	2.0461	-0.0724655
0.78	0	0	0	0	0	0	0	0	0	-48.506	92.4022	4.00839	0.843878	0	-0.418862	-0.533019	1.01538	0.0440471
0.79	0	0	0	0	0	0	0	0	0	-103.694	250.351	17.0506	0.860333	0	-0.400596	0.312457	-0.754376	-0.0513781
0.8	0	0	0	0	0	0	0	0	0	-143.594	482.567	35.2895	0.860067	0	-0.388263	0.849131	-2.85362	-0.208682
0.81	0	0	0	0	0	0	0	0	0	-138.138	732.459	45.0259	0.836505	0	-0.380799	0.857047	-4.54438	-0.279353
0.82	0	0	0	0	0	0	0	0	0	-116.091	977.761	36.6389	0.800649	0	-0.377732	0.619142	-5.21464	-0.195404
0.83	0	0	0	0	0	0	0	0	0	-114.64	1227.35	19.3729	0.77108	0	-0.373753	0.458811	-4.91205	-0.0775339
0.84	0	0	0	0	0	0	0	0	0	-123.87	1486.42	6.58022	0.747438	0	-0.36734	0.349978	-4.19968	-0.0185915
0.85	0	0	0	0	0	0	0	0	0	-110.06	1718.83	-1.68159	0.721952	0	-0.362966	0.238638	-3.72687	0.00364611
0.86	0	0	0	0	0	0	0	0	0	-80.9434	1879.65	-6.74836	0.695981	0	-0.362716	0.170452	-3.95818	0.0142108
0.87	0	0	0	0	0	0	0	0	0	-62.9049	1967.97	-0.980474	0.67388	0	-0.363957	0.160601	-5.02437	0.00250322
0.88	0	0	0	0	0	0	0	0	0	-45.0517	2003.08	16.337	0.653979	0	-0.364484	0.14917	-6.63234	-0.0540929
0.89	0	0	0	0	0	0	0	0	0	-7.82607	1989.08	31.4978	0.631681	0	-0.365278	0.0321639	-8.17481	-0.129451
0.9	0	0	0	0	0	0	0	0	0	44.0989	1929.56	35.5685	0.60625	0	-0.367004	-0.2064	-9.0311	-0.166474
0.91	0	0	0	0	0	0	0	0	0	96.5027	1834.88	34.1042	0.58053	0	-0.368155	-0.464416	-8.8303	-0.164125
0.92	0	0	0	0	0	0	0	0	0	145.391	1705.74	32.1076	0.555645	0	-0.367783	-0.640139	-7.51015	-0.141366
0.93	0	0	0	0	0	0	0	0	0	191.469	1534.56	25.6127	0.529621	0	-0.36706	-0.656358	-5.2605	-0.0878011
0.94	0	0	0	0	0	0	0	0	0	224.438	1321.91	12.52	0.501612	0	-0.367093	-0.423007	-2.49145	-0.0235969
0.95	0	0	0	0	0	0	0	0	0	232.442	1084.78	-1.46194	0.474213	0	-0.367037	0.0541455	0.252692	-0.000340547
0.96	0	0	0	0	0	0	0	0	0	217.711	844.617	-11.2342	0.450047	0	-0.365551	0.635918	2.46707	-0.0328144
0.97	0	0	0	0	0	0	0	0	0	186.022	613.896	-17.4323	0.428	0	-0.363632	1.15575	3.81411	-0.108306
0.98	0	0	0	0	0	0	0	0	0	139.976	403.813	-20.8324	0.403027	0	-0.364451	1.4545	4.19605	-0.216471
0.99	0	0	0	0	0	0	0	0	0	88.8572	233.688	-18.8428	0.373613	0	-0.368526	1.43257	3.76756	-0.303786
1	0	0	0	0	0	0	0	0	0	45.002	119.628	-10.7892	0.373409	0	-0.365682	1.09275	2.90483	-0.261986
1.01	0	0	0	0	0	0	0	0	0	15.5545	54.2396	-2.17376	0.455432	0	-0.339674	0.566595	1.97576	-0.0791822
1.02	0	0	0	0	0	0	0	0	0	1.93465	20.0826	0.852359	0.622306	0	-0.291762	0.105082	1.09081	0.0462968
1.03	0	0	0	0	0	0	0	0	0	0	0	0	0	0	0	0	0	0
1.04	0	0	0	0	0	0	0	0	0	0	0	0	0	0	0	0	0	0
1.05	0	0	0	0	0	0	0	0	0	0	0	0	0	0	0	0	0	0
1.06	0	0	0	0	0	0	0	0	0	0	0	0	0	0	0	0	0	0
1.07	0	0	0	0	0	0	0	0	0	0	0	0	0	0	0	0	0	0
1.08	0	0	0	0	0	0	0	0	0	0	0	0	0	0	0	0	0	0
1.09	-9.79868	15.6958	-3.31143	0.951889	0	-0.178618	0.027467	-0.0439974	0.00928237	0	0	0	0	0	0	0	0	0
1.1	-31.9857	60.5219	-8.79373	0.956004	0	-0.22481	-0.294612	0.557453	-0.0809969	0	0	0	0	0	0	0	0	0
1.11	-76.2715	184.338	-19.6314	0.944738	0	-0.236147	-0.535531	1.29431	-0.137839	0	0	0	0	0	0	0	0	0
1.12	-129.092	410.961	-31.9911	0.93486	0	-0.240769	-0.557208	1.77385	-0.138085	0	0	0	0	0	0	0	0	0
1.13	-154.05	692.507	-37.8948	0.91303	0	-0.246387	-0.356574	1.60292	-0.0877135	0	0	0	0	0	0	0	0	0
1.14	-159.673	972.305	-31.5087	0.882727	0	-0.253018	-0.114481	0.697115	-0.0225909	0	0	0	0	0	0	0	0	0
1.15	-193.105	1221.75	-15.6989	0.85832	0	-0.258277	0.0783983	-0.496017	0.00637357	0	0	0	0	0	0	0	0	0
1.16	-243.017	1417.12	-2.50151	0.840438	0	-0.261813	0.212918	-1.24159	0.00219168	0	0	0	0	0	0	0	0	0
1.17	-265.983	1558.33	-2.61747	0.819496	0	-0.26479	0.165278	-0.968321	0.00162646	0	0	0	0	0	0	0	0	0
1.18	-247.079	1671.92	-14.2083	0.793526	0	-0.26714	-0.0706561	0.47811	-0.00406309	0	0	0	0	0	0	0	0	0
1.19	-204.643	1773.36	-27.294	0.767179	0	-0.268323	-0.323392	2.80239	-0.043132	0	0	0	0	0	0	0	0	0
1.2	-159.037	1846.97	-36.3203	0.742389	0	-0.268736	-0.465687	5.40824	-0.106352	0	0	0	0	0	0	0	0	0
1.21	-115.136	1872.22	-41.9549	0.717967	0	-0.268886	-0.472535	7.68384	-0.172188	0	0	0	0	0	0	0	0	0
1.22	-71.1667	1847.77	-44.8484	0.693313	0	-0.268702	-0.354591	9.20657	-0.223459	0	0	0	0	0	0	0	0	0
1.23	-26.1698	1784.57	-44.6837	0.668673	0	-0.268058	-0.143763	9.80344	-0.245468	0	0	0	0	0	0	0	0	0
1.24	19.5934	1687.85	-42.4745	0.6441	0	-0.267267	0.110492	9.51824	-0.239525	0	0	0	0	0	0	0	0	0
1.25	66.8834	1559.46	-38.8033	0.618877	0	-0.266728	0.365869	8.53064	-0.212264	0	0	0	0	0	0	0	0	0
1.26	113.298	1405.5	-32.1847	0.592772	0	-0.26638	0.570732	7.0801	-0.162128	0	0	0	0	0	0	0	0	0
1.27	151.67	1232.66	-21.9784	0.56666	0	-0.265991	0.667854	5.42781	-0.0967781	0	0	0	0	0	0	0	0	0
1.28	175.921	1045.66	-10.3922	0.54089	0	-0.265646	0.643002	3.82195	-0.037984	0	0	0	0	0	0	0	0	0
1.29	183.182	850.999	0.0229451	0.515603	0	-0.265327	0.527114	2.44878	6.60253e-05	0	0	0	0	0	0	0	0	0
1.3	174.278	659.288	8.5996	0.490987	0	-0.264523	0.369087	1.39625	0.0182123	0	0	0	0	0	0	0	0	0
1.31	151.906	483.399	15.5993	0.466783	0	-0.26285	0.20744	0.660119	0.021302	0	0	0	0	0	0	0	0	0
